<?xml version="1.0" encoding="utf-8"?><svg viewBox="0 0 90 90" xmlns="http://www.w3.org/2000/svg" xmlns:xlink="http://www.w3.org/1999/xlink"><style>:root>svg{display:none}:root>svg:target{display:block}</style><svg fill="none" viewBox="0 0 44 44" id="arrow-down" xmlns="http://www.w3.org/2000/svg"><g clip-path="url(#aa)"><path d="M13.585 15.748 22 24.145l8.415-8.397L33 18.333l-11 11-11-11 2.585-2.585Z" fill="#000"/></g><defs><clipPath id="aa"><path fill="#fff" d="M0 0h44v44H0z"/></clipPath></defs></svg><svg viewBox="0 0 44 44" style="enable-background:new 0 0 44 44" xml:space="preserve" id="arrow-up" xmlns="http://www.w3.org/2000/svg"><defs><path id="ba" d="M0 0h44v44H0z"/></defs><clipPath id="bb"><use xlink:href="#ba" style="overflow:visible"/></clipPath><path d="M30.4 28.3 22 19.9l-8.4 8.4-2.6-2.6 11-11 11 11-2.6 2.6z" style="clip-path:url(#bb)"/></svg><svg fill="none" viewBox="0 0 18 18" id="call-icon" xmlns="http://www.w3.org/2000/svg"><path d="M16.071 12.455c0 .181-.033.417-.1.709a3.99 3.99 0 0 1-.211.688c-.14.334-.55.69-1.226 1.064-.629.342-1.252.513-1.868.513-.18 0-.356-.012-.527-.036a4.347 4.347 0 0 1-.578-.125 8.225 8.225 0 0 1-.477-.146c-.104-.037-.29-.105-.557-.206-.268-.1-.432-.16-.492-.18a9.1 9.1 0 0 1-1.758-.834c-.857-.53-1.743-1.25-2.657-2.165-.914-.914-1.636-1.8-2.165-2.657a9.097 9.097 0 0 1-.833-1.757c-.02-.06-.08-.225-.181-.493-.1-.268-.17-.453-.206-.557a8.193 8.193 0 0 1-.146-.477 4.342 4.342 0 0 1-.125-.578 3.876 3.876 0 0 1-.036-.527c0-.616.171-1.239.513-1.868.375-.677.73-1.085 1.064-1.226a3.99 3.99 0 0 1 .689-.21c.29-.068.527-.101.708-.101.093 0 .164.01.21.03.121.04.299.294.533.763.074.127.174.308.301.543.128.234.245.447.352.637.107.191.21.37.311.538.02.027.079.11.176.251.097.14.17.26.216.357.047.097.07.192.07.286 0 .134-.095.301-.286.502-.19.201-.398.385-.623.553a6.05 6.05 0 0 0-.622.532c-.191.187-.287.341-.287.462 0 .06.017.136.05.226.034.09.062.159.086.206.023.047.07.127.14.241.07.114.11.177.116.19.509.918 1.092 1.705 1.748 2.361.656.656 1.443 1.24 2.36 1.748.014.007.077.045.191.116.114.07.194.117.241.14.047.024.116.052.206.086.09.033.166.05.226.05.12 0 .275-.096.462-.286.188-.191.365-.399.532-.623.168-.225.352-.432.553-.623.2-.19.368-.286.502-.286.094 0 .19.023.287.07.097.047.215.119.356.216l.251.176c.168.1.347.204.538.311.19.107.403.225.637.352.235.127.416.227.543.301.468.234.723.412.763.532.02.047.03.118.03.211Z" fill="#000"/></svg><svg fill="none" viewBox="0 0 42 42" id="check-icon" xmlns="http://www.w3.org/2000/svg"><g clip-path="url(#da)" fill="#DFD8EC"><path d="M41.854 9.571a.678.678 0 0 0-.952-.11L13.595 31.108 1.153 18.99a.678.678 0 0 0-.949.97l12.871 12.532a.678.678 0 0 0 .893.047l27.775-22.017a.678.678 0 0 0 .11-.952ZM40.894 13.193h.002L19.009 31.101l-.316-.306a.677.677 0 1 0-.943.97l.745.729c.247.24.634.257.901.039l22.355-18.29a.677.677 0 0 0-.857-1.05Z"/><path d="M14.41 28.514a.678.678 0 1 0 .944-.971L6.572 18.99a.678.678 0 0 0-.948.97l8.785 8.553Z"/></g><defs><clipPath id="da"><path fill="#fff" d="M0 0h42v42H0z"/></clipPath></defs></svg><svg fill="none" viewBox="0 0 90 90" id="quote-icon" xmlns="http://www.w3.org/2000/svg"><path d="M71.198 36.88c-.182-1.96-.043-7.287 5.06-14.694a1.405 1.405 0 0 0-.163-1.793c-2.08-2.08-3.369-3.393-4.272-4.312-1.188-1.211-1.73-1.763-2.525-2.483a1.41 1.41 0 0 0-1.867-.017c-8.895 7.74-18.774 23.733-17.345 43.327.838 11.505 9.23 19.856 19.954 19.856 11.005 0 19.96-8.952 19.96-19.958 0-10.617-8.334-19.323-18.802-19.926ZM70.04 73.952c-9.21 0-16.42-7.254-17.15-17.247v-.002c-1.608-22.037 11.492-36.35 15.45-40.141.386.38.827.828 1.476 1.49.783.796 1.854 1.887 3.475 3.513-6.195 9.544-5.027 16.345-4.514 17.32.243.463.741.774 1.263.774 9.455 0 17.147 7.692 17.147 17.147 0 9.454-7.692 17.146-17.147 17.146ZM21.254 36.88c-.183-1.955-.048-7.277 5.06-14.695a1.407 1.407 0 0 0-.163-1.792c-2.077-2.076-3.363-3.388-4.266-4.306-1.192-1.214-1.736-1.768-2.53-2.489a1.413 1.413 0 0 0-1.867-.019C8.593 21.32-1.288 37.31.14 56.908v.001c.84 11.504 9.234 19.855 19.958 19.855 11.006 0 19.96-8.952 19.96-19.958 0-10.618-8.333-19.326-18.803-19.926Zm-1.157 37.072c-9.208 0-16.423-7.254-17.153-17.249v.002C1.34 34.662 14.439 20.35 18.397 16.562c.387.38.83.83 1.48 1.494.782.796 1.852 1.886 3.47 3.509-6.195 9.545-5.027 16.345-4.515 17.318a1.46 1.46 0 0 0 1.265.776c9.455 0 17.147 7.692 17.147 17.147 0 9.454-7.692 17.146-17.147 17.146Z" fill="#C3A7F5"/></svg><svg fill="none" viewBox="0 0 30 30" id="shirt-icon" xmlns="http://www.w3.org/2000/svg"><g clip-path="url(#fa)"><path d="M30 2.295v8.097a.5.5 0 1 1-1 0V2.295a.5.5 0 0 1 1 0ZM15 6.938a5.592 5.592 0 0 0 5.558-5.035l3.103.31a.5.5 0 0 0 .1-.995L20.133.856a.5.5 0 0 0-.55.497A4.59 4.59 0 0 1 15 5.938a4.59 4.59 0 0 1-4.585-4.585.5.5 0 1 0-1 0A5.59 5.59 0 0 0 15 6.938Zm-9.445 18.27a.5.5 0 0 0 .5.5h17.89a.5.5 0 0 0 .5-.5V10.393a.5.5 0 1 0-1 0V24.71H6.555V10.392a.5.5 0 0 0-.5-.5H1V2.747l5.668-.566a.5.5 0 0 0-.1-.995L.45 1.797a.5.5 0 0 0-.45.498v8.097a.5.5 0 0 0 .5.5h5.055V25.21Zm23.86 3.116c-.045-.153-.045-.13-.999-1.084a.5.5 0 1 0-.686.729H4.812a.5.5 0 1 0 0 1H27.73a.5.5 0 1 0 .686.729c.578-.579.883-.88.92-.93a.5.5 0 0 0 .08-.445ZM2.917 27.24a.5.5 0 0 0-.707 0l-.875.875a.5.5 0 0 0 0 .707l.875.875a.5.5 0 0 0 .707-.707l-.521-.521.521-.522a.5.5 0 0 0 0-.707ZM26.437 1.863v20.168a.5.5 0 0 0 1 0V1.863a.5.5 0 1 0 .729-.686c-.03-.029-.88-.881-.912-.908a.5.5 0 0 0-.366-.11c-.227.022-.245.085-1.179 1.019a.5.5 0 1 0 .729.685Zm.147 23.647a.5.5 0 0 0 .707 0l.875-.875a.5.5 0 1 0-.707-.707l-.521.521-.522-.522a.5.5 0 0 0-.707.708l.875.875Z" fill="#DC5858"/></g><defs><clipPath id="fa"><path fill="#fff" d="M0 0h30v30H0z"/></clipPath></defs></svg></svg>