<svg width="42" height="42" viewBox="0 0 42 42" fill="none" xmlns="http://www.w3.org/2000/svg">
<g clip-path="url(#clip0_31_128)">
<path d="M41.8536 9.5711C41.6212 9.27777 41.1951 9.22831 40.9018 9.46067L13.595 31.1075L1.15256 18.9908C0.884721 18.7289 0.455227 18.7338 0.193314 19.0017C-0.0685998 19.2696 -0.0637731 19.699 0.204153 19.9609L13.0754 32.4935C13.3192 32.7309 13.7014 32.7507 13.9683 32.5396L41.7431 10.5229C42.0365 10.2906 42.0858 9.86443 41.8536 9.5711Z" fill="#DFD8EC"/>
<path d="M40.8938 13.1934H40.8958L19.0085 31.1014L18.6928 30.7945C18.4391 30.5196 18.0105 30.5025 17.7355 30.7563C17.4606 31.01 17.4435 31.4386 17.6973 31.7136C17.7139 31.7315 17.7314 31.7486 17.7498 31.7647L18.495 32.4936C18.7417 32.7338 19.1294 32.7507 19.396 32.5329L41.7514 14.2422C42.0374 14.0009 42.0736 13.5735 41.8323 13.2876C41.5962 13.0077 41.1806 12.966 40.8938 13.1934Z" fill="#DFD8EC"/>
<path d="M14.4092 28.5136C14.6698 28.782 15.0987 28.7884 15.3672 28.5278C15.6357 28.2673 15.642 27.8384 15.3815 27.5699C15.3725 27.5606 15.3632 27.5516 15.3537 27.5428L6.572 18.9909C6.30416 18.729 5.87466 18.7339 5.61275 19.0017C5.35083 19.2696 5.35566 19.6991 5.62359 19.961L14.4092 28.5136Z" fill="#DFD8EC"/>
</g>
<defs>
<clipPath id="clip0_31_128">
<rect width="42" height="42" fill="white"/>
</clipPath>
</defs>
</svg>
