<svg width="18" height="18" viewBox="0 0 18 18" fill="none" xmlns="http://www.w3.org/2000/svg">
<path d="M16.0713 12.4554C16.0713 12.6362 16.0378 12.8722 15.9709 13.1635C15.9039 13.4548 15.8336 13.6842 15.7599 13.8516C15.6193 14.1864 15.2108 14.5413 14.5345 14.9163C13.905 15.2578 13.2823 15.4286 12.6662 15.4286C12.4854 15.4286 12.3096 15.4169 12.1388 15.3934C11.9681 15.37 11.7756 15.3281 11.5613 15.2679C11.347 15.2076 11.188 15.159 11.0842 15.1222C10.9804 15.0854 10.7945 15.0167 10.5267 14.9163C10.2588 14.8158 10.0948 14.7556 10.0345 14.7355C9.37824 14.5011 8.79231 14.2232 8.27668 13.9018C7.41954 13.3728 6.53394 12.6512 5.61987 11.7372C4.70581 10.8231 3.98427 9.9375 3.45525 9.08036C3.13382 8.56473 2.85592 7.97879 2.62155 7.32254C2.60146 7.26228 2.54119 7.09821 2.44074 6.83036C2.3403 6.5625 2.27166 6.37667 2.23483 6.27288C2.198 6.16908 2.14945 6.01004 2.08918 5.79576C2.02891 5.58147 1.98706 5.38895 1.96362 5.21819C1.94019 5.04743 1.92847 4.87165 1.92847 4.69085C1.92847 4.07478 2.09923 3.45201 2.44074 2.82254C2.81574 2.1462 3.17065 1.73772 3.50548 1.5971C3.67289 1.52344 3.90224 1.45312 4.19353 1.38616C4.48483 1.3192 4.72088 1.28571 4.90168 1.28571C4.99543 1.28571 5.06574 1.29576 5.11262 1.31585C5.23315 1.35603 5.41061 1.61049 5.64498 2.07924C5.71865 2.20647 5.81909 2.38728 5.94632 2.62165C6.07356 2.85603 6.19074 3.06864 6.29789 3.25949C6.40503 3.45033 6.50882 3.62946 6.60927 3.79687C6.62936 3.82366 6.68795 3.90736 6.78505 4.04799C6.88215 4.18861 6.95414 4.30748 7.00101 4.40457C7.04789 4.50167 7.07132 4.5971 7.07132 4.69085C7.07132 4.82478 6.9759 4.99219 6.78505 5.19308C6.5942 5.39397 6.38661 5.57812 6.16228 5.74553C5.93795 5.91295 5.73036 6.0904 5.53952 6.2779C5.34867 6.4654 5.25324 6.61942 5.25324 6.73995C5.25324 6.80022 5.26998 6.87556 5.30347 6.96596C5.33695 7.05636 5.36541 7.125 5.38885 7.17187C5.41228 7.21875 5.45916 7.29911 5.52947 7.41295C5.59978 7.52678 5.63829 7.5904 5.64498 7.60379C6.15391 8.5212 6.7365 9.30803 7.39275 9.96428C8.049 10.6205 8.83583 11.2031 9.75324 11.7121C9.76664 11.7187 9.83025 11.7573 9.94409 11.8276C10.0579 11.8979 10.1383 11.9448 10.1852 11.9682C10.232 11.9916 10.3007 12.0201 10.3911 12.0536C10.4815 12.0871 10.5568 12.1038 10.6171 12.1038C10.7376 12.1038 10.8916 12.0084 11.0791 11.8175C11.2666 11.6267 11.4441 11.4191 11.6115 11.1948C11.7789 10.9704 11.9631 10.7628 12.164 10.572C12.3649 10.3811 12.5323 10.2857 12.6662 10.2857C12.7599 10.2857 12.8554 10.3092 12.9525 10.356C13.0496 10.4029 13.1684 10.4749 13.309 10.572C13.4497 10.6691 13.5334 10.7277 13.5602 10.7478C13.7276 10.8482 13.9067 10.952 14.0976 11.0592C14.2884 11.1663 14.501 11.2835 14.7354 11.4107C14.9698 11.5379 15.1506 11.6384 15.2778 11.7121C15.7465 11.9464 16.001 12.1239 16.0412 12.2444C16.0613 12.2913 16.0713 12.3616 16.0713 12.4554Z" fill="black"/>
</svg>
