<svg width="48" height="48" viewBox="0 0 48 48" fill="none" xmlns="http://www.w3.org/2000/svg">
<g clip-path="url(#clip0_39_6595)">
<path d="M23.2648 32.1772C21.8924 32.1772 20.7812 33.321 20.7812 34.6935C20.7812 36.0333 21.8597 37.2097 23.2648 37.2097C24.6699 37.2097 25.781 36.0334 25.781 34.6935C25.781 33.321 24.6374 32.1772 23.2648 32.1772Z" fill="#E1D0FF"/>
<path d="M23.6896 13.1255C19.278 13.1255 17.252 15.7397 17.252 17.5044C17.252 18.7789 18.3303 19.3671 19.2126 19.3671C20.9772 19.3671 20.2583 16.8508 23.5915 16.8508C25.2255 16.8508 26.5326 17.5698 26.5326 19.073C26.5326 20.8377 24.7026 21.8507 23.6242 22.7657C22.6766 23.5826 21.4348 24.9225 21.4348 27.7329C21.4348 29.4321 21.8922 29.9223 23.2321 29.9223C24.8333 29.9223 25.16 29.2034 25.16 28.5825C25.16 26.8832 25.1929 25.9029 26.9901 24.4977C27.8724 23.8115 30.6501 21.5893 30.6501 18.5175C30.6501 15.4457 27.8724 13.1255 23.6896 13.1255Z" fill="#E1D0FF"/>
<path d="M24 0C10.7359 0 0 10.7341 0 24V46.125C0 47.1606 0.839438 48 1.875 48H24C37.264 48 48 37.2659 48 24C48 10.7359 37.2659 0 24 0ZM24 44.25H3.75V24C3.75 12.8084 12.8069 3.75 24 3.75C35.1916 3.75 44.25 12.8069 44.25 24C44.25 35.1916 35.1931 44.25 24 44.25Z" fill="#E1D0FF"/>
</g>
<defs>
<clipPath id="clip0_39_6595">
<rect width="48" height="48" fill="white"/>
</clipPath>
</defs>
</svg>
