<svg width="90" height="90" viewBox="0 0 90 90" fill="none" xmlns="http://www.w3.org/2000/svg">
<path d="M71.1977 36.8798C71.0164 34.9202 71.1551 29.5931 76.2582 22.1856C76.6442 21.6266 76.5742 20.8727 76.0948 20.3935C74.0143 18.3129 72.7261 17 71.8226 16.0813C70.6346 14.87 70.0922 14.318 69.2984 13.5983C68.7684 13.1219 67.9664 13.1136 67.4308 13.5806C58.5359 21.3205 48.6565 37.3137 50.0861 56.9079C50.9238 68.4132 59.316 76.7643 70.0401 76.7643C81.0455 76.7643 89.9994 67.8118 89.9994 56.8062C89.9994 46.1893 81.6664 37.4826 71.1977 36.8798ZM70.0401 73.9518C60.8307 73.9518 53.6196 66.698 52.8904 56.7047C52.8904 56.7047 52.8904 56.7047 52.8904 56.7033C51.2822 34.6661 64.382 20.3523 68.3399 16.562C68.7258 16.9424 69.1666 17.39 69.8162 18.0519C70.5989 18.8484 71.6702 19.9388 73.2906 21.5649C67.0957 31.1092 68.2644 37.9097 68.7765 38.8848C69.0197 39.3476 69.5182 39.6594 70.0401 39.6594C79.4951 39.6594 87.1869 47.3511 87.1869 56.8062C87.1869 66.26 79.4951 73.9518 70.0401 73.9518Z" fill="#C3A7F5"/>
<path d="M21.2537 36.8797C21.071 34.9255 21.2056 29.6026 26.3142 22.1855C26.6988 21.6265 26.6301 20.8726 26.1508 20.3934C24.0743 18.3169 22.7876 17.0054 21.8854 16.0867C20.6934 14.8727 20.1495 14.3192 19.3558 13.5982C18.8256 13.1218 18.0237 13.1149 17.4882 13.5791C8.59335 21.3189 -1.28753 37.3096 0.139256 56.9078V56.9092C0.979772 68.4131 9.37326 76.7641 20.0973 76.7641C31.1029 76.7641 40.0568 67.8117 40.0568 56.8061C40.0568 46.1879 31.7236 37.4799 21.2537 36.8797ZM20.0973 73.9516C10.8895 73.9516 3.67415 66.6979 2.9436 56.7032V56.7046C1.33963 34.6619 14.4394 20.3507 18.3972 16.5619C18.7844 16.9423 19.2267 17.3927 19.8777 18.056C20.659 18.8525 21.7289 19.9415 23.3466 21.5648C17.1516 31.1105 18.3204 37.9096 18.8325 38.8833C19.0757 39.3461 19.5755 39.6593 20.0973 39.6593C29.5525 39.6593 37.2443 47.351 37.2443 56.8061C37.2443 66.2599 29.5525 73.9516 20.0973 73.9516Z" fill="#C3A7F5"/>
</svg>
