<svg width="30" height="30" viewBox="0 0 30 30" fill="none" xmlns="http://www.w3.org/2000/svg">
<g clip-path="url(#clip0_22_24)">
<path d="M30 2.29491V10.3923C30 10.6685 29.7761 10.8923 29.5 10.8923C29.2239 10.8923 29 10.6685 29 10.3923V2.29491C29 2.01878 29.2239 1.79491 29.5 1.79491C29.7761 1.79491 30 2.01878 30 2.29491ZM15 6.93778C17.8937 6.93778 20.2805 4.72535 20.5576 1.90316L23.6609 2.21353C23.9354 2.24072 24.1807 2.04053 24.2082 1.76572C24.2356 1.49097 24.0352 1.24597 23.7604 1.21847L20.1341 0.855847C19.8389 0.826597 19.5843 1.05853 19.5843 1.35335C19.5843 3.88122 17.5278 5.93778 14.9999 5.93778C12.472 5.93778 10.4154 3.88122 10.4154 1.35335C10.4154 1.07722 10.1916 0.853347 9.91544 0.853347C9.63931 0.853347 9.41544 1.07722 9.41544 1.35335C9.41556 4.4326 11.9207 6.93778 15 6.93778ZM5.55519 25.2089C5.55519 25.485 5.77906 25.7089 6.05519 25.7089H23.9447C24.2209 25.7089 24.4447 25.485 24.4447 25.2089V10.3923C24.4447 10.1162 24.2209 9.89235 23.9447 9.89235C23.6686 9.89235 23.4447 10.1162 23.4447 10.3923V24.7089H6.55519V10.3923C6.55519 10.1162 6.33131 9.89235 6.05519 9.89235H1V2.74741L6.66806 2.18066C6.94281 2.15316 7.14331 1.90816 7.11587 1.63341C7.08837 1.35866 6.84319 1.15822 6.56862 1.1856L0.45025 1.79741C0.194625 1.82297 0 2.03803 0 2.29491V10.3923C0 10.6685 0.223875 10.8923 0.5 10.8923H5.55519V25.2089ZM29.4159 28.3235C29.3697 28.1712 29.3702 28.1942 28.4161 27.2401C28.2208 27.0448 27.9042 27.0448 27.709 27.2401C27.5306 27.4185 27.4896 27.7278 27.7304 27.9687H4.8125C4.53638 27.9687 4.3125 28.1925 4.3125 28.4687C4.3125 28.7448 4.53638 28.9687 4.8125 28.9687H27.7304C27.4934 29.2057 27.5272 29.5154 27.709 29.6972C27.9043 29.8925 28.2208 29.8925 28.4161 29.6972C28.9943 29.119 29.2994 28.8183 29.3368 28.7687C29.4326 28.6412 29.4621 28.4762 29.4159 28.3235ZM2.91606 27.2401C2.72081 27.0448 2.40425 27.0448 2.209 27.2401L1.334 28.1151C1.13869 28.3103 1.13869 28.6269 1.334 28.8222L2.209 29.6972C2.30663 29.7948 2.43456 29.8436 2.56256 29.8436C3.00394 29.8436 3.23206 29.306 2.91613 28.99L2.39469 28.4686L2.91613 27.9472C3.11131 27.7519 3.11131 27.4353 2.91606 27.2401ZM26.4375 1.86322V22.0312C26.4375 22.3073 26.6614 22.5312 26.9375 22.5312C27.2136 22.5312 27.4375 22.3073 27.4375 22.0312V1.86322C27.5418 1.96753 27.6555 2.03116 27.8125 2.03116C28.2539 2.03116 28.482 1.49353 28.1661 1.1776C28.1368 1.14828 27.2864 0.295659 27.2543 0.269409C27.1536 0.186534 27.0211 0.145534 26.8884 0.158659C26.6613 0.180722 26.6431 0.243597 25.709 1.1776C25.5137 1.37285 25.5137 1.68941 25.709 1.88466C25.8873 2.06303 26.1968 2.10397 26.4375 1.86322ZM26.5839 25.5097C26.7792 25.705 27.0958 25.7049 27.291 25.5097L28.166 24.6347C28.3613 24.4394 28.3613 24.1228 28.166 23.9276C27.9708 23.7323 27.6542 23.7323 27.4589 23.9276L26.9375 24.449L26.4161 23.9275C26.2208 23.7323 25.9042 23.7323 25.709 23.9275C25.5137 24.1228 25.5137 24.4393 25.709 24.6346L26.5839 25.5097Z" fill="#DC5858"/>
</g>
<defs>
<clipPath id="clip0_22_24">
<rect width="30" height="30" fill="white"/>
</clipPath>
</defs>
</svg>
