<svg width="181" height="45" viewBox="0 0 181 45" fill="none" xmlns="http://www.w3.org/2000/svg">
<path d="M12.36 0.859998C14.12 0.859998 15.5 1.06 16.5 1.46C17.54 1.82 18.6 2.36 19.68 3.08C20.56 3.64 21.24 3.92 21.72 3.92C22.08 3.92 22.36 3.72 22.56 3.32C22.76 2.88 22.92 2.2 23.04 1.28H24.42C24.22 3.6 24.12 7.68 24.12 13.52H22.74C22.5 10.28 21.56 7.56 19.92 5.36C18.32 3.12 15.98 2 12.9 2C10.74 2 8.98 2.66 7.62 3.98C6.26 5.26 5.58 6.92 5.58 8.96C5.58 10.48 5.92 11.8 6.6 12.92C7.32 14.04 8.22 15 9.3 15.8C10.38 16.6 11.92 17.62 13.92 18.86L15.66 19.94C18.18 21.5 20.16 22.88 21.6 24.08C23.08 25.24 24.26 26.58 25.14 28.1C26.02 29.62 26.46 31.4 26.46 33.44C26.46 37.08 25.26 39.9 22.86 41.9C20.46 43.86 17.42 44.84 13.74 44.84C11.82 44.84 10.24 44.64 9 44.24C7.8 43.84 6.64 43.3 5.52 42.62C4.64 42.06 3.96 41.78 3.48 41.78C3.12 41.78 2.84 42 2.64 42.44C2.44 42.84 2.28 43.5 2.16 44.42H0.78C0.94 42.22 1.02 37.42 1.02 30.02H2.4C2.68 34.06 3.68 37.34 5.4 39.86C7.12 42.38 9.76 43.64 13.32 43.64C15.48 43.64 17.32 42.98 18.84 41.66C20.36 40.3 21.12 38.3 21.12 35.66C21.12 33.42 20.36 31.52 18.84 29.96C17.36 28.4 15 26.64 11.76 24.68C9.4 23.24 7.48 21.96 6 20.84C4.56 19.72 3.38 18.38 2.46 16.82C1.54 15.22 1.08 13.36 1.08 11.24C1.08 7.88 2.16 5.32 4.32 3.56C6.48 1.76 9.16 0.859998 12.36 0.859998ZM72.3023 2.72C70.8623 2.8 69.8023 2.96 69.1223 3.2C68.4823 3.44 68.0423 3.9 67.8023 4.58C67.5623 5.26 67.4423 6.36 67.4423 7.88V37.64C67.4423 39.16 67.5623 40.26 67.8023 40.94C68.0423 41.62 68.4823 42.08 69.1223 42.32C69.8023 42.56 70.8623 42.72 72.3023 42.8V44C70.6223 43.88 68.0623 43.82 64.6223 43.82C61.3823 43.82 58.8423 43.88 57.0023 44V42.8C58.4423 42.72 59.4823 42.56 60.1223 42.32C60.8023 42.08 61.2623 41.62 61.5023 40.94C61.7423 40.26 61.8623 39.16 61.8623 37.64V23.24H42.3623V37.64C42.3623 39.16 42.4823 40.26 42.7223 40.94C42.9623 41.62 43.4023 42.08 44.0423 42.32C44.7223 42.56 45.7823 42.72 47.2223 42.8V44C45.3823 43.88 42.8423 43.82 39.6023 43.82C36.1623 43.82 33.6023 43.88 31.9223 44V42.8C33.3623 42.72 34.4023 42.56 35.0423 42.32C35.7223 42.08 36.1823 41.62 36.4223 40.94C36.6623 40.26 36.7823 39.16 36.7823 37.64V7.88C36.7823 6.36 36.6623 5.26 36.4223 4.58C36.1823 3.9 35.7223 3.44 35.0423 3.2C34.4023 2.96 33.3623 2.8 31.9223 2.72V1.52C33.6023 1.64 36.1623 1.7 39.6023 1.7C42.8023 1.7 45.3423 1.64 47.2223 1.52V2.72C45.7823 2.8 44.7223 2.96 44.0423 3.2C43.4023 3.44 42.9623 3.9 42.7223 4.58C42.4823 5.26 42.3623 6.36 42.3623 7.88V22.04H61.8623V7.88C61.8623 6.36 61.7423 5.26 61.5023 4.58C61.2623 3.9 60.8023 3.44 60.1223 3.2C59.4823 2.96 58.4423 2.8 57.0023 2.72V1.52C58.8423 1.64 61.3823 1.7 64.6223 1.7C68.0623 1.7 70.6223 1.64 72.3023 1.52V2.72ZM108.833 38.96C109.793 41.44 111.173 42.72 112.973 42.8V44C111.373 43.88 109.233 43.82 106.553 43.82C103.113 43.82 100.553 43.88 98.8725 44V42.8C100.393 42.72 101.473 42.54 102.113 42.26C102.793 41.94 103.133 41.38 103.133 40.58C103.133 39.9 102.893 38.96 102.413 37.76L98.7525 27.92H84.2325L81.7725 34.28C80.9725 36.44 80.5725 38.08 80.5725 39.2C80.5725 40.44 80.9925 41.34 81.8325 41.9C82.7125 42.46 84.0325 42.76 85.7925 42.8V44C83.5125 43.88 81.2125 43.82 78.8925 43.82C77.0925 43.82 75.5925 43.88 74.3925 44V42.8C76.3925 42.32 77.9725 40.58 79.1325 37.58L93.2325 1.22H94.1925L108.833 38.96ZM98.2725 26.72L91.5525 8.78L84.7125 26.72H98.2725ZM143.894 1.52C143.614 4.36 143.474 6.92 143.474 9.2C143.474 11.2 143.534 12.84 143.654 14.12H142.274C141.954 11.04 141.554 8.76 141.074 7.28C140.594 5.76 139.754 4.66 138.554 3.98C137.354 3.26 135.514 2.9 133.034 2.9H129.254C127.814 2.9 126.754 3.02 126.074 3.26C125.434 3.46 124.994 3.9 124.754 4.58C124.514 5.26 124.394 6.36 124.394 7.88V22.64H128.774C130.174 22.64 131.254 22.32 132.014 21.68C132.774 21 133.274 20.22 133.514 19.34C133.794 18.42 134.014 17.28 134.174 15.92L134.354 14.72H135.734C135.614 16.4 135.554 18.28 135.554 20.36V23.24C135.554 25.28 135.674 28.12 135.914 31.76H134.534C134.494 31.48 134.374 30.52 134.174 28.88C133.974 27.2 133.414 25.94 132.494 25.1C131.614 24.26 130.374 23.84 128.774 23.84H124.394V37.64C124.394 39.16 124.554 40.26 124.874 40.94C125.194 41.62 125.754 42.08 126.554 42.32C127.354 42.56 128.654 42.72 130.454 42.8V44C128.374 43.88 125.434 43.82 121.634 43.82C118.194 43.82 115.634 43.88 113.954 44V42.8C115.394 42.72 116.434 42.56 117.074 42.32C117.754 42.08 118.214 41.62 118.454 40.94C118.694 40.26 118.814 39.16 118.814 37.64V7.88C118.814 6.36 118.694 5.26 118.454 4.58C118.214 3.9 117.754 3.44 117.074 3.2C116.434 2.96 115.394 2.8 113.954 2.72V1.52C117.874 1.64 123.674 1.7 131.354 1.7C137.234 1.7 141.414 1.64 143.894 1.52ZM176.86 38.96C177.82 41.44 179.2 42.72 181 42.8V44C179.4 43.88 177.26 43.82 174.58 43.82C171.14 43.82 168.58 43.88 166.9 44V42.8C168.42 42.72 169.5 42.54 170.14 42.26C170.82 41.94 171.16 41.38 171.16 40.58C171.16 39.9 170.92 38.96 170.44 37.76L166.78 27.92H152.26L149.8 34.28C149 36.44 148.6 38.08 148.6 39.2C148.6 40.44 149.02 41.34 149.86 41.9C150.74 42.46 152.06 42.76 153.82 42.8V44C151.54 43.88 149.24 43.82 146.92 43.82C145.12 43.82 143.62 43.88 142.42 44V42.8C144.42 42.32 146 40.58 147.16 37.58L161.26 1.22H162.22L176.86 38.96ZM166.3 26.72L159.58 8.78L152.74 26.72H166.3Z" fill="#171717"/>
</svg>
