<?xml version="1.0" encoding="utf-8"?><svg viewBox="0 0 18 18" xmlns="http://www.w3.org/2000/svg" xmlns:xlink="http://www.w3.org/1999/xlink"><style>:root>svg{display:none}:root>svg:target{display:block}</style><svg fill="none" viewBox="0 0 18 18" id="call-icon" xmlns="http://www.w3.org/2000/svg"><path d="M16.071 12.455c0 .181-.033.417-.1.709a3.99 3.99 0 0 1-.211.688c-.14.334-.55.69-1.226 1.064-.629.342-1.252.513-1.868.513-.18 0-.356-.012-.527-.036a4.347 4.347 0 0 1-.578-.125 8.225 8.225 0 0 1-.477-.146c-.104-.037-.29-.105-.557-.206-.268-.1-.432-.16-.492-.18a9.1 9.1 0 0 1-1.758-.834c-.857-.53-1.743-1.25-2.657-2.165-.914-.914-1.636-1.8-2.165-2.657a9.097 9.097 0 0 1-.833-1.757c-.02-.06-.08-.225-.181-.493-.1-.268-.17-.453-.206-.557a8.193 8.193 0 0 1-.146-.477 4.342 4.342 0 0 1-.125-.578 3.876 3.876 0 0 1-.036-.527c0-.616.171-1.239.513-1.868.375-.677.73-1.085 1.064-1.226a3.99 3.99 0 0 1 .689-.21c.29-.068.527-.101.708-.101.093 0 .164.01.21.03.121.04.299.294.533.763.074.127.174.308.301.543.128.234.245.447.352.637.107.191.21.37.311.538.02.027.079.11.176.251.097.14.17.26.216.357.047.097.07.192.07.286 0 .134-.095.301-.286.502-.19.201-.398.385-.623.553a6.05 6.05 0 0 0-.622.532c-.191.187-.287.341-.287.462 0 .06.017.136.05.226.034.09.062.159.086.206.023.047.07.127.14.241.07.114.11.177.116.19.509.918 1.092 1.705 1.748 2.361.656.656 1.443 1.24 2.36 1.748.014.007.077.045.191.116.114.07.194.117.241.14.047.024.116.052.206.086.09.033.166.05.226.05.12 0 .275-.096.462-.286.188-.191.365-.399.532-.623.168-.225.352-.432.553-.623.2-.19.368-.286.502-.286.094 0 .19.023.287.07.097.047.215.119.356.216l.251.176c.168.1.347.204.538.311.19.107.403.225.637.352.235.127.416.227.543.301.468.234.723.412.763.532.02.047.03.118.03.211Z" fill="#000"/></svg></svg>